Coordinates
version=1
nRows=8
nColumns=36
inDegrees=yes

Units are S.I. units (second, meters, Newtons, ...)
If the header above contains a line with 'inDegrees', this indicates whether rotational values are in degrees (yes) or radians (no).

endheader
time	pelvis_tilt	pelvis_list	pelvis_rotation	pelvis_tx	pelvis_ty	pelvis_tz	hip_flexion_r	hip_adduction_r	hip_rotation_r	knee_angle_r	knee_angle_r_beta	ankle_angle_r	subtalar_angle_r	mtp_angle_r	hip_flexion_l	hip_adduction_l	hip_rotation_l	knee_angle_l	knee_angle_l_beta	ankle_angle_l	subtalar_angle_l	mtp_angle_l	lumbar_extension	lumbar_bending	lumbar_rotation	arm_flex_r	arm_add_r	arm_rot_r	elbow_flex_r	pro_sup_r	arm_flex_l	arm_add_l	arm_rot_l	elbow_flex_l	pro_sup_l
      0.00000000	     -2.11429089	     -1.13824531	     10.99542231	     -0.02484452	      0.93333263	     -0.20448600	     25.40070963	      0.81459367	     -4.80924730	      3.54173752	      0.06181498	     -5.71913913	     -7.21573541	     -5.54886230	    -12.07386918	      0.24759751	     -2.16596317	     11.23884733	      0.19615489	     18.69575525	      3.42076191	     -5.54886230	     -2.94255844	     -3.72438623	    -10.16168944	     -2.54156251	     -3.38957744	    -18.19904501	     29.96633242	     98.73374371	     19.02165420	     -8.85416052	     -4.89258312	     47.67434497	    103.46145903
      0.01000000	     -1.95951383	     -1.59474942	     11.09833414	     -0.01236681	      0.93344894	     -0.20389494	     24.87645005	      1.48039018	     -4.43125819	      3.87743084	      0.06767393	     -7.67646080	     -9.40535425	     -5.62554589	    -12.08110980	     -0.53153586	     -1.94569784	     12.78490193	      0.22313863	     17.95420847	      2.58343952	     -5.62554589	     -2.99668569	     -3.04641107	    -10.36342748	     -2.48110342	     -3.43920921	    -18.32884678	     29.55582242	     99.14721541	     18.55604519	     -8.57112388	     -5.23083872	     47.54680911	    103.99154843
      0.02000000	     -1.58767363	     -2.00570134	     11.30713714	      0.00015455	      0.93392092	     -0.20348488	     24.15717676	      2.06375906	     -4.65860642	      4.39012992	      0.07662222	     -8.30131648	    -10.34330985	     -5.64781690	    -12.22646310	     -1.34183921	     -1.81808910	     14.50220682	      0.25311126	     17.17156363	      1.89293304	     -5.64781690	     -3.34506264	     -2.37340603	    -10.53383734	     -2.49368790	     -3.52780359	    -18.49653689	     29.25106096	     99.22505791	     18.27379695	     -8.29927216	     -5.33938372	     47.38624377	    104.10615274
      0.03000000	     -1.40211917	     -2.42241427	     11.41620006	      0.01275370	      0.93426561	     -0.20283494	     23.57098844	      2.74258258	     -3.86080317	      4.75879784	      0.08305669	    -10.62852723	    -13.36614507	     -5.74482173	    -12.16856125	     -2.03703611	     -1.17201971	     16.19586848	      0.28267123	     15.88340616	      0.45630358	     -5.74482173	     -3.42738113	     -1.73040792	    -10.71974998	     -2.41783583	     -3.54397964	    -18.92220793	     28.85571644	     99.62336300	     17.76657189	     -7.98408852	     -5.83076387	     47.26626541	    104.57910988
      0.04000000	     -0.97605899	     -2.85340429	     11.58181574	      0.02551240	      0.93508154	     -0.20220603	     22.83526453	      3.41080447	     -4.01714758	      5.45375651	      0.09518601	    -10.87348163	    -13.95829720	     -5.76159880	    -12.11465899	     -2.90356075	     -1.04123266	     18.32481736	      0.31982840	     14.75500556	     -0.09572202	     -5.76159880	     -3.79487433	     -1.04011020	    -10.77936218	     -2.41778274	     -3.60408674	    -19.02918616	     28.58182085	     99.66539100	     17.42533494	     -7.69963486	     -5.83345344	     46.96006027	    104.62443866
      0.05000000	     -0.63031587	     -3.32530558	     11.68962228	      0.03840323	      0.93593574	     -0.20142055	     22.21187282	      4.15505610	     -4.07443960	      6.21525784	      0.10847671	    -11.24192178	    -14.87530693	     -5.78230945	    -11.76517089	     -3.81814885	     -1.01908335	     20.77901239	      0.36266218	     13.25665501	     -0.83060467	     -5.78230945	     -3.99514687	     -0.31512591	    -10.83552783	     -2.38105708	     -3.66082979	    -19.18826848	     28.26742610	     99.71336661	     16.97354123	     -7.41534310	     -5.86562942	     46.49617127	    104.66314372
      0.06000000	     -0.28380794	     -3.78080225	     11.75871060	      0.05125862	      0.93693511	     -0.20046270	     21.60154755	      4.92926390	     -3.92223245	      7.05017818	      0.12304882	    -11.39052301	    -15.88999471	     -5.80240481	    -11.22209587	     -4.73131076	     -0.94331804	     23.52705149	      0.41062451	     11.47884415	     -1.51345722	     -5.80240481	     -4.22851056	      0.36359524	    -10.80115311	     -2.34760421	     -3.69463782	    -19.31720091	     27.97720157	     99.76088817	     16.52643101	     -7.13733331	     -5.85088174	     45.96632672	    104.69354357
      0.07000000	     -0.12865192	     -4.25615111	     11.72586225	      0.06401525	      0.93775862	     -0.19923575	     21.24542192	      5.75650471	     -3.47613193	      7.98481626	      0.13936133	    -11.73589917	    -17.42428637	     -5.84669063	    -10.24024659	     -5.62112261	     -0.84019857	     26.58987096	      0.46408080	      9.14570514	     -2.53827164	     -5.84669063	     -4.18220948	      1.00530665	    -10.64923938	     -2.33817200	     -3.70032417	    -19.46971810	     27.67296332	     99.89156037	     16.07223718	     -6.89437447	     -5.67529456	     45.16288106	    104.80108214
